<svg xmlns="http://www.w3.org/2000/svg" x="0px" y="0px" width="24" height="24" viewBox="0,0,24,24">
 <circle cx="12" cy="12" r="12" fill="red"/>
   <g transform="translate(2.5,2.5) scale(0.8)">
    <path fill="#ffffff"
      d="M10,2l-1,1h-5v2h1v15c0,0.52222 0.19133,1.05461 0.56836,1.43164c0.37703,0.37703 0.90942,0.56836 1.43164,0.56836h10c0.52222,0 1.05461,-0.19133 1.43164,-0.56836c0.37703,-0.37703 0.56836,-0.90942 0.56836,-1.43164v-15h1v-2h-5l-1,-1zM7,5h10v15h-10zM9,7v11h2v-11zM13,7v11h2v-11z">
    </path>
    </g>
</svg>