<svg width="650" height="650" viewBox="0 0 650 650" fill="none" xmlns="http://www.w3.org/2000/svg">
<circle cx="325" cy="325" r="325" fill="black"/>
<rect x="160.775" y="190.775" width="300.45" height="298.45" rx="41.225" stroke="white" stroke-width="42.45"/>
<rect x="432.984" y="130.984" width="42.449" height="255.95" rx="10" transform="rotate(45 432.984 130.984)" fill="white"/>
<rect x="491.984" y="192" width="42.449" height="255.95" rx="10" transform="rotate(45 491.984 192)" fill="white"/>
<path d="M517.775 179.5C517.775 202.536 498.714 221.775 474.5 221.775C450.286 221.775 431.225 202.536 431.225 179.5C431.225 156.464 450.286 137.225 474.5 137.225C498.714 137.225 517.775 156.464 517.775 179.5Z" stroke="white" stroke-width="42.45"/>
<rect x="441.937" y="173.64" width="55" height="30.847" transform="rotate(45 441.937 173.64)" fill="white"/>
<path d="M246 317.5L256.5 308L260 305L289.5 334.5L285 337.5L281 342L279.5 347L277.5 353.5C277 354.833 276 357.7 276 358.5C276 359.5 274 364 272.5 368C271 372 270 372 270 376C270 379.2 269 380 268.5 380C268 381 267 383.9 267 387.5C267 391.1 269 389 270 387.5L276 385.5L282 383L286 381.5L291 380L297 377.5L303.5 376L307 374L312 372L315 369.5L316.5 368L321 364L349 395.5C348.167 396.167 344.6 399.2 337 406C331.4 411.2 330.667 411.167 331 410.5L324.5 413L315 416.5L303.5 419.5L291 424.5L276 428.5L262.5 433.5L252.5 436.5C250.5 437.167 245.7 438.7 242.5 439.5L241 441.5H236.5H233H229.5H226.5C225 441 221.2 439.3 218 436.5C215.2 434.5 214.167 431.667 214 430.5L212.5 427L211 423.5V418.5C211 418.1 213 412.333 214 409.5L223 383L229.5 364L239 334.5L243.5 321.5L246 317.5Z" fill="white"/>
<line x1="264.664" y1="388.11" x2="288.664" y2="325.11" stroke="white" stroke-width="5"/>
<line x1="266.983" y1="391.422" x2="326.983" y2="364.716" stroke="white" stroke-width="5"/>
<line x1="235.723" y1="439.209" x2="330.723" y2="407.209" stroke="white" stroke-width="8"/>
<circle cx="231" cy="423" r="20" fill="white"/>
<line x1="424.988" y1="229.029" x2="470.687" y2="182.315" stroke="black" stroke-width="42"/>
<rect x="444.824" y="155" width="80" height="29.45" transform="rotate(45 444.824 155)" fill="white"/>
</svg>
